<svg width="47" height="47" viewBox="0 0 47 47" fill="none" xmlns="http://www.w3.org/2000/svg">
<path d="M45.9818 22.8H43.1527C43.0591 20.8249 42.6733 18.9286 42.0317 17.1492L44.6429 16.067C45.1158 15.8714 45.3402 15.3289 45.1445 14.8551C44.9489 14.3812 44.4036 14.1587 43.9326 14.3534L41.3204 15.4356C40.4896 13.6793 39.4075 12.0714 38.1139 10.6499L40.1187 8.64514C40.4813 8.28257 40.4813 7.69561 40.1187 7.33397C39.7561 6.97141 39.1701 6.97141 38.8075 7.33397L36.8028 9.33874C35.3822 8.04612 33.7734 6.96306 32.018 6.13223L33.1002 3.51917C33.2958 3.04626 33.0714 2.50381 32.5985 2.30816C32.1284 2.11343 31.5822 2.33597 31.3866 2.81074L30.3054 5.42101C28.5259 4.77934 26.6297 4.39359 24.6536 4.29994V1.47268C24.6536 0.960828 24.2382 0.54541 23.7264 0.54541C23.2145 0.54541 22.7991 0.960828 22.7991 1.47268V4.30179C20.824 4.39545 18.9277 4.78119 17.1483 5.42286L16.068 2.81166C15.8724 2.33783 15.3299 2.11436 14.857 2.30908C14.3832 2.50474 14.1588 3.04719 14.3544 3.5201L15.4365 6.13223C13.6803 6.96306 12.0724 8.04612 10.6509 9.33874L8.64613 7.33397C8.28356 6.97141 7.69753 6.97141 7.33496 7.33397C6.9724 7.69654 6.9724 8.28257 7.33496 8.64514L9.33973 10.6499C8.04711 12.0714 6.96405 13.6793 6.13322 15.4356L3.52202 14.3534C3.04911 14.1578 2.50665 14.3812 2.31007 14.8551C2.11442 15.328 2.33882 15.8704 2.81173 16.067L5.422 17.1492C4.78033 18.9286 4.39458 20.8239 4.30093 22.8H1.47274C0.960889 22.8 0.545471 23.2154 0.545471 23.7272C0.545471 24.2391 0.960889 24.6545 1.47274 24.6545H4.30185C4.39551 26.6305 4.78125 28.5268 5.42293 30.3072L2.81265 31.3874C2.33974 31.5831 2.11442 32.1255 2.31007 32.5994C2.45751 32.9564 2.80338 33.1715 3.16687 33.1715C3.28463 33.1715 3.40518 33.1492 3.52109 33.101L6.13414 32.0189C6.96498 33.7752 8.04711 35.383 9.33973 36.8036L7.33496 38.8084C6.9724 39.171 6.9724 39.757 7.33496 40.1196C7.51578 40.3004 7.75316 40.3912 7.99054 40.3912C8.22793 40.3912 8.46531 40.3004 8.64613 40.1196L10.6509 38.1148C12.0724 39.4083 13.6812 40.4905 15.4365 41.3213L14.3544 43.9334C14.1588 44.4073 14.3832 44.9497 14.8561 45.1454C14.972 45.1936 15.0925 45.2158 15.2103 45.2158C15.5747 45.2158 15.9197 45.0007 16.0671 44.6437L17.1483 42.0325C18.9277 42.6742 20.8231 43.0599 22.7991 43.1536V45.9818C22.7991 46.4946 23.2145 46.909 23.7264 46.909C24.2382 46.909 24.6536 46.4946 24.6536 45.9818V43.1527C26.6297 43.059 28.525 42.6733 30.3054 42.0316L31.3866 44.6419C31.534 44.9989 31.8799 45.214 32.2434 45.214C32.3621 45.214 32.4826 45.1917 32.5985 45.1435C33.0714 44.9479 33.2958 44.4054 33.1002 43.9316L32.018 41.3194C33.7743 40.4886 35.3822 39.4065 36.8028 38.1139L38.8075 40.1186C38.9883 40.2994 39.2257 40.3903 39.4631 40.3903C39.7005 40.3903 39.9379 40.2994 40.1187 40.1186C40.4813 39.7561 40.4813 39.17 40.1187 38.8075L38.1139 36.8027C39.4065 35.3821 40.4896 33.7733 41.3195 32.018L43.9326 33.0992C44.0485 33.1474 44.169 33.1696 44.2877 33.1696C44.6521 33.1696 44.9971 32.9545 45.1445 32.5975C45.3402 32.1237 45.1158 31.5812 44.6429 31.3856L42.0317 30.3044C42.6733 28.5249 43.0591 26.6296 43.1527 24.6536H45.9818C46.4946 24.6536 46.9091 24.2382 46.9091 23.7263C46.9091 23.2144 46.4946 22.8 45.9818 22.8ZM23.7273 41.3454C14.0123 41.3454 6.10911 33.4423 6.10911 23.7272C6.10911 14.0122 14.0123 6.10905 23.7273 6.10905C33.4423 6.10905 41.3455 14.0122 41.3455 23.7272C41.3455 33.4423 33.4423 41.3454 23.7273 41.3454Z" fill="#5051DB"/>
<path d="M23.7273 20.9456C26.2838 20.9456 28.3637 18.8657 28.3637 16.3092C28.3637 13.7527 26.2838 11.6729 23.7273 11.6729C21.1708 11.6729 19.0909 13.7527 19.0909 16.3092C19.0909 18.8657 21.1708 20.9456 23.7273 20.9456ZM23.7273 13.5274C25.261 13.5274 26.5091 14.7755 26.5091 16.3092C26.5091 17.8429 25.261 19.091 23.7273 19.091C22.1936 19.091 20.9455 17.8429 20.9455 16.3092C20.9455 14.7755 22.1936 13.5274 23.7273 13.5274Z" fill="#5051DB"/>
<path d="M27.4364 22.8H20.0182C17.4617 22.8 15.3818 24.8799 15.3818 27.4364V33C15.3818 33.5128 15.7973 33.9273 16.3091 33.9273C16.821 33.9273 17.2364 33.5128 17.2364 33V27.4364C17.2364 25.9027 18.4845 24.6546 20.0182 24.6546H27.4364C28.9701 24.6546 30.2182 25.9027 30.2182 27.4364V33C30.2182 33.5128 30.6327 33.9273 31.1455 33.9273C31.6583 33.9273 32.0727 33.5128 32.0727 33V27.4364C32.0727 24.8799 29.9929 22.8 27.4364 22.8Z" fill="#5051DB"/>
</svg>
