<svg width="11" height="19" viewBox="0 0 11 19" fill="none" xmlns="http://www.w3.org/2000/svg">
<path d="M8.0027 5.18589C8.02737 5.15955 8.14271 5.07352 8.59567 5.07352L10.0808 5.073C10.5639 5.073 10.9568 4.70121 10.9568 4.24418V1.78875C10.9568 1.3325 10.5645 0.960714 10.0822 0.959932L7.8762 0.956543C6.5147 0.956543 5.35728 1.38138 4.52908 2.1853C3.7046 2.98557 3.26872 4.10274 3.26872 5.41584V6.74015H1.58118C1.09803 6.74015 0.705017 7.11193 0.705017 7.56897V10.2134C0.705017 10.6705 1.09803 11.0422 1.58118 11.0422H3.26872V17.214C3.26872 17.6711 3.66174 18.0429 4.14488 18.0429H7.03739C7.52053 18.0429 7.91355 17.6711 7.91355 17.214V11.0424H9.97633C10.4595 11.0424 10.8524 10.6705 10.8524 10.2137L10.8535 7.5691C10.8535 7.26888 10.6808 6.99109 10.4027 6.84417C10.2739 6.77613 10.1239 6.74015 9.96931 6.74015H7.91355V5.69389C7.91355 5.35288 7.96205 5.22943 8.0027 5.18589Z" fill="white"/>
</svg>
