<svg width="41" height="41" viewBox="0 0 41 41" fill="none" xmlns="http://www.w3.org/2000/svg">
<path d="M27.3338 31.6044H25.6255V23.9172C25.6255 23.2376 25.8955 22.5858 26.376 22.1052C26.8565 21.6247 27.5083 21.3547 28.1879 21.3547C28.8675 21.3547 29.5193 21.6247 29.9998 22.1052C30.4803 22.5858 30.7503 23.2376 30.7503 23.9172V29.042H29.042V23.9172C29.042 23.6906 28.9521 23.4734 28.7919 23.3132C28.6317 23.153 28.4144 23.063 28.1879 23.063C27.9614 23.063 27.7441 23.153 27.5839 23.3132C27.4238 23.4734 27.3338 23.6906 27.3338 23.9172V31.6044Z" fill="#5051DB"/>
<path d="M34.1669 29.042H32.4586V22.2089C32.4586 21.9824 32.3686 21.7651 32.2084 21.6049C32.0483 21.4447 31.831 21.3548 31.6045 21.3548C31.3779 21.3548 31.1607 21.4447 31.0005 21.6049C30.8403 21.7651 30.7503 21.9824 30.7503 22.2089V29.042H29.0421V22.2089C29.0421 21.5293 29.312 20.8775 29.7926 20.397C30.2731 19.9165 30.9249 19.6465 31.6045 19.6465C32.2841 19.6465 32.9358 19.9165 33.4164 20.397C33.8969 20.8775 34.1669 21.5293 34.1669 22.2089V29.042Z" fill="#5051DB"/>
<path d="M37.5834 29.042H35.8752V23.9172C35.8752 23.6906 35.7852 23.4734 35.625 23.3132C35.4648 23.153 35.2476 23.063 35.021 23.063C34.7945 23.063 34.5772 23.153 34.4171 23.3132C34.2569 23.4734 34.1669 23.6906 34.1669 23.9172V29.042H32.4586V23.9172C32.4586 23.2376 32.7286 22.5858 33.2091 22.1052C33.6897 21.6247 34.3414 21.3547 35.021 21.3547C35.7006 21.3547 36.3524 21.6247 36.8329 22.1052C37.3135 22.5858 37.5834 23.2376 37.5834 23.9172V29.042Z" fill="#5051DB"/>
<path d="M29.042 40.1459H27.3338V38.7878L23.3108 34.7648C23.153 34.6057 23.064 34.391 23.0631 34.1669V29.8962C23.0501 29.444 23.1296 28.9939 23.2967 28.5735C23.4638 28.1532 23.715 27.7713 24.0349 27.4514C24.3548 27.1316 24.7366 26.8804 25.157 26.7133C25.5774 26.5462 26.0274 26.4667 26.4796 26.4796V28.1879C26.2514 28.1728 26.0226 28.2067 25.8084 28.2872C25.5943 28.3677 25.3999 28.493 25.2382 28.6547C25.0764 28.8165 24.9511 29.0109 24.8706 29.225C24.7901 29.4391 24.7563 29.668 24.7714 29.8962V33.8167L28.7943 37.8397C28.9521 37.9988 29.0411 38.2135 29.042 38.4376V40.1459Z" fill="#5051DB"/>
<path d="M39.2917 40.1459H37.5835V38.4376C37.5828 38.3252 37.6044 38.2138 37.6469 38.1097C37.6894 38.0056 37.752 37.911 37.8312 37.8312L39.2917 36.3791V24.7714C39.2917 24.5449 39.2017 24.3276 39.0416 24.1674C38.8814 24.0072 38.6641 23.9173 38.4376 23.9173C38.2111 23.9173 37.9938 24.0072 37.8336 24.1674C37.6734 24.3276 37.5835 24.5449 37.5835 24.7714V29.0421H35.8752V24.7714C35.8752 24.0918 36.1452 23.44 36.6257 22.9595C37.1062 22.479 37.758 22.209 38.4376 22.209C39.1172 22.209 39.769 22.479 40.2495 22.9595C40.73 23.44 41 24.0918 41 24.7714V36.7293C41.0007 36.8417 40.9791 36.9532 40.9366 37.0572C40.8941 37.1613 40.8315 37.256 40.7523 37.3358L39.2917 38.7878V40.1459Z" fill="#5051DB"/>
<path d="M5.1262 19.6466C4.4466 19.6466 3.79484 19.3767 3.3143 18.8961C2.83375 18.4156 2.56378 17.7638 2.56378 17.0842V9.39697H4.27206V17.0842C4.27206 17.3107 4.36205 17.528 4.52223 17.6882C4.68241 17.8484 4.89966 17.9384 5.1262 17.9384C5.35273 17.9384 5.56998 17.8484 5.73016 17.6882C5.89034 17.528 5.98033 17.3107 5.98033 17.0842V11.9594H7.68861V17.0842C7.68861 17.7638 7.41864 18.4156 6.9381 18.8961C6.45755 19.3767 5.80579 19.6466 5.1262 19.6466Z" fill="#5051DB"/>
<path d="M8.54276 21.3547C7.86317 21.3547 7.21141 21.0848 6.73086 20.6042C6.25031 20.1237 5.98035 19.4719 5.98035 18.7923V11.9592H7.68862V18.7923C7.68862 19.0189 7.77861 19.2361 7.93879 19.3963C8.09898 19.5565 8.31623 19.6465 8.54276 19.6465C8.76929 19.6465 8.98655 19.5565 9.14673 19.3963C9.30691 19.2361 9.3969 19.0189 9.3969 18.7923V11.9592H11.1052V18.7923C11.1052 19.4719 10.8352 20.1237 10.3547 20.6042C9.87412 21.0848 9.22236 21.3547 8.54276 21.3547Z" fill="#5051DB"/>
<path d="M11.9593 19.6465C11.2797 19.6465 10.6279 19.3765 10.1474 18.896C9.66682 18.4154 9.39685 17.7637 9.39685 17.0841V11.9592H11.1051V17.0841C11.1051 17.3106 11.1951 17.5278 11.3553 17.688C11.5155 17.8482 11.7327 17.9382 11.9593 17.9382C12.1858 17.9382 12.403 17.8482 12.5632 17.688C12.7234 17.5278 12.8134 17.3106 12.8134 17.0841V11.9592H14.5217V17.0841C14.5217 17.7637 14.2517 18.4154 13.7712 18.896C13.2906 19.3765 12.6389 19.6465 11.9593 19.6465Z" fill="#5051DB"/>
<path d="M3.41792 14.5217C2.96573 14.5347 2.51565 14.4552 2.09526 14.2881C1.67488 14.1209 1.29305 13.8698 0.973166 13.5499C0.653286 13.23 0.402097 12.8482 0.234993 12.4278C0.0678883 12.0074 -0.0116107 11.5573 0.00136775 11.1051V6.83444C0.000717838 6.72203 0.0222635 6.61059 0.0647694 6.50653C0.107275 6.40246 0.169905 6.30781 0.249068 6.228L4.27206 2.21355V0.855469H5.98033V2.56375C5.98098 2.67616 5.95944 2.78759 5.91693 2.89165C5.87443 2.99572 5.8118 3.09037 5.73263 3.17018L1.70964 7.18463V11.1051C1.69454 11.3334 1.72838 11.5622 1.80889 11.7763C1.8894 11.9904 2.01472 12.1848 2.17646 12.3466C2.33821 12.5083 2.53264 12.6336 2.74674 12.7142C2.96085 12.7947 3.18968 12.8285 3.41792 12.8134V14.5217Z" fill="#5051DB"/>
<path d="M15.3758 18.7924C14.6962 18.7924 14.0445 18.5224 13.5639 18.0419C13.0834 17.5613 12.8134 16.9095 12.8134 16.23V11.9593H14.5217V16.23C14.5217 16.4565 14.6117 16.6737 14.7719 16.8339C14.932 16.9941 15.1493 17.0841 15.3758 17.0841C15.6024 17.0841 15.8196 16.9941 15.9798 16.8339C16.14 16.6737 16.23 16.4565 16.23 16.23V4.62222L14.7694 3.17018C14.6902 3.09037 14.6276 2.99572 14.5851 2.89165C14.5426 2.78759 14.521 2.67616 14.5217 2.56375V0.855469H16.23V2.21355L17.6905 3.67412C17.8483 3.83322 17.9373 4.04795 17.9382 4.27202V16.23C17.9382 16.9095 17.6683 17.5613 17.1877 18.0419C16.7072 18.5224 16.0554 18.7924 15.3758 18.7924Z" fill="#5051DB"/>
<path d="M17.0841 30.7503H11.9593V29.042H17.0841C17.3106 29.042 17.5279 28.9521 17.6881 28.7919C17.8482 28.6317 17.9382 28.4144 17.9382 28.1879C17.9382 27.9614 17.8482 27.7441 17.6881 27.5839C17.5279 27.4238 17.3106 27.3338 17.0841 27.3338H9.39685V25.6255H17.0841C17.7637 25.6255 18.4154 25.8955 18.896 26.376C19.3765 26.8565 19.6465 27.5083 19.6465 28.1879C19.6465 28.8675 19.3765 29.5193 18.896 29.9998C18.4154 30.4803 17.7637 30.7503 17.0841 30.7503Z" fill="#5051DB"/>
<path d="M18.7924 34.1668H11.9593V32.4585H18.7924C19.0189 32.4585 19.2362 32.3686 19.3964 32.2084C19.5565 32.0482 19.6465 31.8309 19.6465 31.6044C19.6465 31.3779 19.5565 31.1606 19.3964 31.0004C19.2362 30.8403 19.0189 30.7503 18.7924 30.7503H11.9593V29.042H18.7924C19.472 29.042 20.1237 29.312 20.6043 29.7925C21.0848 30.2731 21.3548 30.9248 21.3548 31.6044C21.3548 32.284 21.0848 32.9358 20.6043 33.4163C20.1237 33.8969 19.472 34.1668 18.7924 34.1668Z" fill="#5051DB"/>
<path d="M17.0841 37.5833H11.9593V35.875H17.0841C17.3106 35.875 17.5279 35.7851 17.6881 35.6249C17.8483 35.4647 17.9383 35.2474 17.9383 35.0209C17.9383 34.7944 17.8483 34.5771 17.6881 34.4169C17.5279 34.2568 17.3106 34.1668 17.0841 34.1668H11.9593V32.4585H17.0841C17.7637 32.4585 18.4155 32.7285 18.896 33.209C19.3766 33.6896 19.6465 34.3413 19.6465 35.0209C19.6465 35.7005 19.3766 36.3523 18.896 36.8328C18.4155 37.3134 17.7637 37.5833 17.0841 37.5833Z" fill="#5051DB"/>
<path d="M2.56375 29.0421H0.855469V27.3338H2.21355L6.23654 23.3108C6.39563 23.153 6.61036 23.0641 6.83444 23.0631H11.1051C11.5573 23.0502 12.0074 23.1297 12.4278 23.2968C12.8482 23.4639 13.23 23.7151 13.5499 24.0349C13.8698 24.3548 14.1209 24.7366 14.2881 25.157C14.4552 25.5774 14.5347 26.0275 14.5217 26.4797H12.8134C12.8285 26.2514 12.7947 26.0226 12.7142 25.8085C12.6336 25.5944 12.5083 25.4 12.3466 25.2382C12.1848 25.0765 11.9904 24.9512 11.7763 24.8707C11.5622 24.7902 11.3334 24.7563 11.1051 24.7714H7.18463L3.17018 28.7944C3.09037 28.8736 2.99572 28.9362 2.89165 28.9787C2.78759 29.0212 2.67616 29.0428 2.56375 29.0421Z" fill="#5051DB"/>
<path d="M16.23 41.0001H4.27202C4.15961 41.0007 4.04818 40.9792 3.94411 40.9367C3.84005 40.8942 3.74539 40.8315 3.66558 40.7524L2.21355 39.2918H0.855469V37.5835H2.56375C2.67616 37.5829 2.78759 37.6044 2.89165 37.6469C2.99572 37.6894 3.09037 37.7521 3.17018 37.8312L4.62222 39.2918H16.23C16.4565 39.2918 16.6737 39.2018 16.8339 39.0416C16.9941 38.8814 17.0841 38.6642 17.0841 38.4377C17.0841 38.2111 16.9941 37.9939 16.8339 37.8337C16.6737 37.6735 16.4565 37.5835 16.23 37.5835H11.9593V35.8752H16.23C16.9095 35.8752 17.5613 36.1452 18.0419 36.6258C18.5224 37.1063 18.7924 37.7581 18.7924 38.4377C18.7924 39.1173 18.5224 39.769 18.0419 40.2496C17.5613 40.7301 16.9095 41.0001 16.23 41.0001Z" fill="#5051DB"/>
<path d="M29.042 7.68855H23.9172C23.2376 7.68855 22.5859 7.41858 22.1053 6.93804C21.6248 6.45749 21.3548 5.80573 21.3548 5.12614C21.3548 4.44654 21.6248 3.79478 22.1053 3.31423C22.5859 2.83369 23.2376 2.56372 23.9172 2.56372H31.6045V4.272H23.9172C23.6907 4.272 23.4734 4.36199 23.3132 4.52217C23.1531 4.68235 23.0631 4.8996 23.0631 5.12614C23.0631 5.35267 23.1531 5.56992 23.3132 5.7301C23.4734 5.89028 23.6907 5.98027 23.9172 5.98027H29.042V7.68855Z" fill="#5051DB"/>
<path d="M29.0421 11.1051H22.209C21.5294 11.1051 20.8776 10.8351 20.3971 10.3545C19.9165 9.87399 19.6465 9.22223 19.6465 8.54264C19.6465 7.86304 19.9165 7.21128 20.3971 6.73074C20.8776 6.25019 21.5294 5.98022 22.209 5.98022H29.0421V7.6885H22.209C21.9824 7.6885 21.7652 7.77849 21.605 7.93867C21.4448 8.09885 21.3548 8.31611 21.3548 8.54264C21.3548 8.76917 21.4448 8.98642 21.605 9.14661C21.7652 9.30679 21.9824 9.39678 22.209 9.39678H29.0421V11.1051Z" fill="#5051DB"/>
<path d="M29.042 14.5218H23.9172C23.2376 14.5218 22.5859 14.2518 22.1053 13.7713C21.6248 13.2907 21.3548 12.639 21.3548 11.9594C21.3548 11.2798 21.6248 10.628 22.1053 10.1475C22.5859 9.66694 23.2376 9.39697 23.9172 9.39697H29.042V11.1052H23.9172C23.6907 11.1052 23.4734 11.1952 23.3132 11.3554C23.1531 11.5156 23.0631 11.7329 23.0631 11.9594C23.0631 12.1859 23.1531 12.4032 23.3132 12.5634C23.4734 12.7235 23.6907 12.8135 23.9172 12.8135H29.042V14.5218Z" fill="#5051DB"/>
<path d="M40.1459 5.98033H38.4376C38.3252 5.98098 38.2137 5.95944 38.1097 5.91693C38.0056 5.87443 37.9109 5.8118 37.8311 5.73263L33.8167 1.70964H29.8962C29.668 1.69454 29.4391 1.72838 29.225 1.80889C29.0109 1.8894 28.8165 2.01472 28.6547 2.17646C28.493 2.33821 28.3677 2.53264 28.2872 2.74674C28.2067 2.96085 28.1728 3.18968 28.1879 3.41792H26.4796C26.4667 2.96573 26.5462 2.51565 26.7133 2.09526C26.8804 1.67488 27.1316 1.29305 27.4514 0.973166C27.7713 0.653286 28.1532 0.402097 28.5735 0.234993C28.9939 0.0678883 29.444 -0.0116107 29.8962 0.00136775H34.1669C34.2793 0.000717838 34.3907 0.0222635 34.4948 0.0647694C34.5989 0.107275 34.6935 0.169905 34.7733 0.249068L38.7878 4.27206H40.1459V5.98033Z" fill="#5051DB"/>
<path d="M36.7293 17.9383H24.7713C24.0917 17.9383 23.44 17.6683 22.9594 17.1878C22.4789 16.7072 22.2089 16.0555 22.2089 15.3759C22.2089 14.6963 22.4789 14.0445 22.9594 13.564C23.44 13.0834 24.0917 12.8135 24.7713 12.8135H29.042V14.5218H24.7713C24.5448 14.5218 24.3276 14.6117 24.1674 14.7719C24.0072 14.9321 23.9172 15.1494 23.9172 15.3759C23.9172 15.6024 24.0072 15.8197 24.1674 15.9799C24.3276 16.14 24.5448 16.23 24.7713 16.23H36.3791L37.8397 14.7695C37.9987 14.6117 38.2135 14.5227 38.4375 14.5218H40.1458V16.23H38.7877L37.3272 17.6906C37.1681 17.8484 36.9533 17.9374 36.7293 17.9383Z" fill="#5051DB"/>
</svg>
