<svg width="54" height="30" viewBox="0 0 54 30" fill="none" xmlns="http://www.w3.org/2000/svg">
<path d="M53.125 16.5041L46.8795 0.863047C46.7179 0.458995 46.2628 0.261037 45.8572 0.416769L39.189 2.98829C38.9918 3.06422 38.8333 3.21569 38.7481 3.40938C38.6633 3.60269 38.6586 3.82196 38.7361 4.01875L39.1435 5.05585L36.1107 5.87204L31.6483 4.37206C29.6347 3.69489 27.4662 3.7792 25.5231 4.56091C25.1009 4.23966 24.5912 4.02456 23.9927 3.9343C23.0738 3.79523 22.0782 3.99512 21.1907 4.4968L17.3729 6.65225L15.7758 5.86667L16.368 4.68584C16.4625 4.4968 16.478 4.27792 16.4106 4.07764C16.3436 3.87697 16.1987 3.71194 16.0093 3.61858L9.6014 0.462869C9.2109 0.269947 8.74061 0.428391 8.54343 0.81501L0.904416 15.8362C0.70607 16.2267 0.861415 16.7039 1.25191 16.9027L7.70239 20.1847C7.81513 20.242 7.93832 20.2711 8.06228 20.2711C8.14557 20.2711 8.22925 20.2579 8.31021 20.2316C8.51088 20.1653 8.67669 20.022 8.7716 19.8333L9.25991 18.8596L11.4264 20.2092C11.3467 20.5115 11.3264 20.8288 11.3764 21.147C11.4721 21.7571 11.8014 22.2925 12.3039 22.6555L12.8613 23.0576C13.2712 23.3539 13.7473 23.4965 14.2195 23.4965C14.2224 23.4965 14.2251 23.4955 14.228 23.4955C14.2355 23.6318 14.244 23.7683 14.273 23.9017C14.4136 24.551 14.7925 25.1011 15.3399 25.4505C15.7416 25.707 16.1941 25.829 16.6473 25.829C16.7056 25.829 16.7627 25.8108 16.8209 25.8068C16.8248 25.8599 16.8194 25.9126 16.8267 25.9657C16.9154 26.6084 17.2451 27.174 17.7553 27.5575C18.1837 27.8795 18.6896 28.0344 19.1979 28.0344C19.4609 28.0344 19.7205 27.978 19.974 27.8966C20.1461 28.3121 20.4279 28.6903 20.8052 28.9739C21.2732 29.3256 21.8178 29.4968 22.3435 29.4968C23.0114 29.4968 23.6487 29.2202 24.0581 28.6849L24.4769 28.1372C25.3539 28.8577 26.9395 29.9435 28.5442 29.9435C28.7549 29.9435 28.966 29.9245 29.1756 29.8838C30.1592 29.6922 30.9388 29.0675 31.4977 28.0244C31.7217 28.0712 31.9488 28.1045 32.1822 28.1045C32.186 28.1045 32.1899 28.1045 32.1934 28.1045C33.481 28.0999 34.6144 27.3325 35.5716 25.8402C35.8236 25.8975 36.0771 25.9382 36.3331 25.9382C36.3978 25.9382 36.4633 25.9363 36.5283 25.932C37.8174 25.8513 38.88 24.9992 39.6969 23.4168C39.8405 23.4439 39.984 23.4703 40.1245 23.4756C40.1594 23.4771 40.1942 23.4775 40.2287 23.4775C40.9865 23.4775 41.6512 23.1587 42.1556 22.5513C42.9393 21.608 43.2934 20.6685 43.2078 19.7589C43.1886 19.5541 43.1466 19.3533 43.0832 19.1575L44.5134 18.7269L44.9278 19.7818C45.0049 19.9786 45.1575 20.1363 45.3516 20.2199C45.4519 20.2633 45.5589 20.285 45.6662 20.285C45.7661 20.285 45.8665 20.266 45.9614 20.2281L52.6834 17.5345C53.0898 17.3718 53.2874 16.9104 53.125 16.5041ZM7.71092 18.4089L2.67868 15.8482L9.60295 2.23248L14.5914 4.68894L13.997 5.87422C13.9968 5.87475 13.9962 5.875 13.996 5.87553C13.9957 5.87601 13.9958 5.87655 13.9956 5.87703L7.71092 18.4089ZM13.2328 21.3689C13.0759 21.2558 12.9737 21.0892 12.9438 20.9006C12.9144 20.7135 12.9605 20.5256 13.0736 20.3718C13.2162 20.1773 13.4389 20.0743 13.6652 20.0743C13.8155 20.0743 13.9673 20.1196 14.0979 20.2141L14.6549 20.6158C14.8114 20.729 14.9141 20.8955 14.9439 21.0846C14.9734 21.2717 14.9273 21.4596 14.8142 21.6134C14.5775 21.9365 14.1176 22.0074 13.7903 21.7714L13.2328 21.3689ZM16.1937 24.1132C15.9527 23.959 15.8593 23.7305 15.8237 23.5658C15.7625 23.2834 15.8249 22.9716 15.9949 22.7097L16.4443 22.0174C16.7717 21.515 17.3946 21.3329 17.8323 21.6134C18.0737 21.7672 18.1667 21.9957 18.2027 22.1604C18.2639 22.4428 18.2015 22.755 18.0318 23.0161L17.5817 23.7088C17.2555 24.2116 16.6314 24.3925 16.1937 24.1132ZM18.709 26.2892C18.5393 26.1618 18.4289 25.97 18.3987 25.7496C18.3631 25.4912 18.4363 25.2278 18.6048 25.0073L20.1129 23.0347C20.4395 22.6078 21.019 22.4951 21.4041 22.7852C21.5738 22.9127 21.6838 23.1041 21.714 23.3245C21.7497 23.5829 21.6764 23.8467 21.5083 24.0671L21.4028 24.2052C21.4024 24.2057 21.4018 24.2061 21.4014 24.2066L20.2044 25.7721C20.2041 25.7724 20.2039 25.7728 20.2037 25.7732L19.9998 26.0397C19.6732 26.467 19.0925 26.5782 18.709 26.2892ZM21.7586 27.7055C21.549 27.5479 21.4111 27.3298 21.3805 27.107C21.3665 27.0064 21.3702 26.8602 21.4648 26.7363L22.6159 25.2306L22.662 25.1704C22.7608 25.0414 22.925 24.9771 23.1094 24.9771C23.3019 24.9771 23.5162 25.0472 23.701 25.1859C23.9105 25.3436 24.0485 25.5617 24.0791 25.7844C24.093 25.8852 24.0895 26.0316 23.9946 26.1556L22.7976 27.721C22.5965 27.9845 22.1204 27.9767 21.7586 27.7055ZM40.9349 21.5375C40.723 21.7931 40.4879 21.9059 40.1849 21.89C38.5544 21.8284 35.7617 18.7285 34.3841 16.7888C34.1308 16.4312 33.6349 16.3479 33.2781 16.6009C32.9209 16.8546 32.8365 17.3497 33.0902 17.7069C33.4147 18.1646 35.7872 21.4283 38.219 22.8323C37.6942 23.7963 37.0935 24.3065 36.4295 24.3484C34.5689 24.4813 32.0749 21.1869 31.3559 20.0278C31.125 19.6555 30.6369 19.5404 30.2638 19.7709C29.8915 20.0018 29.7765 20.4903 30.0066 20.8626C30.2517 21.2591 31.9452 23.9139 34.0822 25.218C33.4819 26.0738 32.8474 26.5146 32.1895 26.5178C32.1872 26.5178 32.1849 26.5178 32.1822 26.5178C30.5931 26.5178 28.8889 24.1864 28.3656 23.2869C28.1455 22.9081 27.659 22.7783 27.2816 22.9995C26.9028 23.2191 26.7734 23.7038 26.993 24.0826C27.1648 24.3794 28.3406 26.3284 30.0215 27.3996C29.7093 27.9258 29.3327 28.2362 28.8738 28.3261C27.7548 28.5437 26.2778 27.564 25.4197 26.852C25.6277 26.4677 25.7136 26.0241 25.6511 25.5683C25.5632 24.9295 25.2002 24.3278 24.6547 23.9176C24.2403 23.6061 23.7658 23.4406 23.2971 23.4059C23.2952 23.3066 23.2998 23.2076 23.2861 23.1079C23.1977 22.4656 22.8681 21.9004 22.3579 21.5169C21.551 20.9106 20.4684 20.8971 19.6163 21.3956C19.4263 20.9344 19.1079 20.5446 18.6862 20.2757C17.9508 19.806 17.0451 19.7886 16.2746 20.145C16.111 19.8275 15.8826 19.5454 15.5835 19.3293L15.0265 18.9276C14.208 18.3358 13.131 18.3653 12.3437 18.9114L9.97417 17.4353L15.0644 7.2853L17.0483 8.2611C17.1591 8.31533 17.2788 8.34245 17.3985 8.34245C17.5333 8.34245 17.6677 8.30797 17.7886 8.23979L21.9709 5.87824C22.5516 5.55051 23.1857 5.41841 23.756 5.50324C23.7565 5.50334 23.7568 5.50353 23.7573 5.50363C22.462 6.41207 21.4711 7.6449 20.9338 9.0324C19.9181 11.6566 21.1449 13.0675 21.943 13.4506C22.8286 13.8644 23.6684 13.9155 24.4378 13.6029C25.6255 13.1217 26.3023 11.8987 26.6614 10.9574C26.7761 10.656 27.0054 10.4158 27.306 10.2817C27.6423 10.1314 28.0254 10.1384 28.3567 10.3011L33.1813 12.6735C35.1236 13.6288 36.8739 14.8983 38.3843 16.4475C39.1754 17.2587 40.0385 18.0517 40.9493 18.8032C41.363 19.1449 41.5916 19.5164 41.628 19.9073C41.6725 20.3819 41.4397 20.93 40.9349 21.5375ZM42.1626 17.7777C42.0935 17.7123 42.0353 17.6423 41.9596 17.5798C41.0926 16.8639 40.2717 16.1105 39.5202 15.3395C37.8834 13.661 35.9864 12.285 33.8817 11.2494L29.0567 8.87705C28.3024 8.50593 27.4285 8.48888 26.6595 8.8325C25.9707 9.13971 25.4446 9.69368 25.1785 10.3925C24.9767 10.9217 24.535 11.8515 23.8424 12.1319C23.491 12.2737 23.0893 12.235 22.6411 12.0258C22.5427 11.9716 21.7028 11.4416 22.4137 9.60535C22.8998 8.34981 23.8679 7.2469 25.1401 6.49962C26.9566 5.43158 29.1458 5.20418 31.1424 5.87592L35.8322 7.45261C35.9809 7.50219 36.1409 7.50762 36.2912 7.46694L39.7273 6.54218L43.9314 17.2451L42.1626 17.7777ZM46.1124 18.4581L40.5049 4.18146L45.6968 2.17941L51.3574 16.3565L46.1124 18.4581Z" fill="#5051DB"/>
</svg>
