<svg width="40" height="40" viewBox="0 0 40 40" fill="none" xmlns="http://www.w3.org/2000/svg">
<path d="M35.4839 27.0968V20.6452H37.8181L35.2374 15.4839H29.0323V13.7548L30.9542 11.0632C31.8077 9.86968 32.2581 8.46323 32.2581 6.99677C32.2581 3.13871 29.1194 0 25.2613 0H25.0606C21.2032 0 18.0645 3.13871 18.0645 6.99677C18.0645 8.46323 18.5148 9.86968 19.3684 11.0639L21.2903 13.7548V15.4839H16.3755L13.7948 20.6452H16.129V27.0968H15.7323L12.5935 23.9581L11.2155 24.7839L10.8265 23.2258H5.94774L5.55871 24.7839L4.18064 23.9581L0.732258 27.4065L1.55806 28.7845L0 29.1735V34.0523L1.55806 34.4413L0.732258 35.8194L4.18129 39.2684L5.55935 38.4426L5.94774 40H10.8265L11.2155 38.4419L12.5935 39.2677L15.7323 36.129H35.4839C37.9735 36.129 40 34.1026 40 31.6129C40 29.1232 37.9735 27.0968 35.4839 27.0968ZM34.1935 27.0968H25.8064V18.8619L26.6981 20.6452H34.1935V27.0968ZM34.8387 31.6129C34.8387 33.3916 33.3916 34.8387 31.6129 34.8387C29.8342 34.8387 28.3871 33.3916 28.3871 31.6129C28.3871 29.8342 29.8342 28.3871 31.6129 28.3871C33.3916 28.3871 34.8387 29.8342 34.8387 31.6129ZM23.871 34.8387C22.0923 34.8387 20.6452 33.3916 20.6452 31.6129C20.6452 29.8342 22.0923 28.3871 23.871 28.3871C25.6497 28.3871 27.0968 29.8342 27.0968 31.6129C27.0968 33.3916 25.6497 34.8387 23.871 34.8387ZM27.0252 28.3871H28.4581C28.1813 28.6581 27.9419 28.9652 27.7413 29.2987C27.5413 28.9652 27.3019 28.6581 27.0252 28.3871ZM35.7303 19.3548H27.4955L26.2052 16.7742H34.44L35.7303 19.3548ZM20.4174 10.3135C19.7219 9.34 19.3548 8.19226 19.3548 6.99677C19.3548 3.85032 21.9148 1.29032 25.0613 1.29032H25.2619C28.4077 1.29032 30.9677 3.85032 30.9677 6.99677C30.9677 8.1929 30.6006 9.34 29.9052 10.3142L28.0555 12.9032H25.8064V8.91355C26.5555 8.64645 27.0968 7.93677 27.0968 7.09677C27.0968 6.02968 26.2284 5.16129 25.1613 5.16129C24.0942 5.16129 23.2258 6.02968 23.2258 7.09677C23.2258 7.93677 23.7671 8.64645 24.5161 8.91355V12.9032H22.2671L20.4174 10.3135ZM24.5161 7.09677C24.5161 6.74064 24.8052 6.45161 25.1613 6.45161C25.5174 6.45161 25.8064 6.74064 25.8064 7.09677C25.8064 7.4529 25.5174 7.74194 25.1613 7.74194C24.8052 7.74194 24.5161 7.4529 24.5161 7.09677ZM22.5806 14.1935H27.7419V15.4839H26.2052H24.1174H22.5806V14.1935ZM17.1729 16.7742H24.1174L22.8271 19.3548H15.8826L17.1729 16.7742ZM17.4194 20.6452H23.6245L24.5161 18.8619V27.0968H17.4194V20.6452ZM12.3929 37.6439L11 36.8077L10.2135 37.1277L9.81871 38.7097H6.95548L6.64194 37.4523L6.51161 37.1077L5.77419 36.8077L4.38129 37.6439L2.35613 35.6187L3.19226 34.2258L2.87226 33.4394L1.29032 33.0445V30.1813L2.54774 29.8677L2.89226 29.7374L3.19226 29L2.35613 27.6071L4.38129 25.5819L5.77419 26.4181L6.56064 26.0981L6.95548 24.5161H9.81871L10.1323 25.7735L10.2626 26.1181L11 26.4181L12.3929 25.5819L14.4181 27.6071L13.5819 29L13.9019 29.7864L15.4839 30.1813V33.0445L14.2265 33.3581L13.8819 33.4884L13.5819 34.2258L14.4181 35.6187L12.3929 37.6439ZM15.4542 34.8387L15.2161 34.4413L16.7742 34.0523V29.1735L15.2161 28.7845L15.4542 28.3871H20.7161C19.8774 29.2077 19.3548 30.3497 19.3548 31.6129C19.3548 32.8761 19.8774 34.0181 20.7168 34.8387H15.4542ZM27.0252 34.8387C27.3019 34.5677 27.5413 34.2606 27.7419 33.9271C27.9426 34.2606 28.1819 34.5684 28.4587 34.8387H27.0252ZM35.4839 34.8387H34.7671C35.6064 34.0181 36.129 32.8761 36.129 31.6129C36.129 30.3497 35.6064 29.2077 34.7671 28.3871H35.4839C37.2626 28.3871 38.7097 29.8342 38.7097 31.6129C38.7097 33.3916 37.2626 34.8387 35.4839 34.8387Z" fill="#5959FF"/>
</svg>
